<?xml version="1.0" encoding="UTF-8"?>
<svg width="64px" height="64px" viewBox="0 0 64 64" version="1.1" xmlns="http://www.w3.org/2000/svg" xmlns:xlink="http://www.w3.org/1999/xlink">
    <defs>
        <rect id="path-1" x="0" y="0" width="64" height="64"></rect>
    </defs>
    <g id="Page-1" stroke="none" stroke-width="1" fill="none" fill-rule="evenodd">
        <g id="black" transform="translate(-132.000000, -46.000000)">
            <g id="brick_2" transform="translate(132.000000, 46.000000)">
                <mask id="mask-2" fill="white">
                    <use xlink:href="#path-1"></use>
                </mask>
                <g id="Mask"></g>
                <g mask="url(#mask-2)" fill="#9A2828" fill-rule="nonzero" stroke="#ADABAB">
                    <g transform="translate(-11.000000, 0.000000)">
                        <rect id="Rectangle" x="11" y="0" width="22" height="16"></rect>
                        <rect id="Rectangle-Copy-7" x="11" y="32" width="22" height="16"></rect>
                        <rect id="Rectangle-Copy" x="0" y="16" width="22" height="16"></rect>
                        <rect id="Rectangle-Copy-8" x="0" y="48" width="22" height="16"></rect>
                        <rect id="Rectangle-Copy-2" x="64" y="16" width="22" height="16"></rect>
                        <rect id="Rectangle-Copy-9" x="64" y="48" width="22" height="16"></rect>
                        <rect id="Rectangle-Copy-3" x="33" y="0" width="21" height="16"></rect>
                        <rect id="Rectangle-Copy-10" x="33" y="32" width="21" height="16"></rect>
                        <rect id="Rectangle-Copy-4" x="22" y="16" width="21" height="16"></rect>
                        <rect id="Rectangle-Copy-11" x="22" y="48" width="21" height="16"></rect>
                        <rect id="Rectangle-Copy-5" x="54" y="0" width="21" height="16"></rect>
                        <rect id="Rectangle-Copy-12" x="54" y="32" width="21" height="16"></rect>
                        <rect id="Rectangle-Copy-6" x="43" y="16" width="21" height="16"></rect>
                        <rect id="Rectangle-Copy-13" x="43" y="48" width="21" height="16"></rect>
                    </g>
                </g>
            </g>
        </g>
    </g>
</svg>
