<?xml version="1.0" encoding="UTF-8"?>
<svg width="33px" height="45px" viewBox="0 0 33 45" version="1.1" xmlns="http://www.w3.org/2000/svg" xmlns:xlink="http://www.w3.org/1999/xlink">
    <g id="Page-1" stroke="none" stroke-width="1" fill="none" fill-rule="evenodd">
        <g id="player" transform="translate(-71.000000, -49.000000)">
            <g transform="translate(70.000000, 48.000000)">
                <g id="body" transform="translate(6.000000, 29.000000)" fill="#F3E8DC" stroke="#979797">
                    <ellipse id="Oval-4" cx="16.5" cy="14" rx="3.5" ry="2"></ellipse>
                    <ellipse id="Oval-4-Copy-2" transform="translate(20.482051, 5.031089) rotate(60.000000) translate(-20.482051, -5.031089) " cx="20.4820508" cy="5.03108891" rx="3.5" ry="2"></ellipse>
                    <ellipse id="Oval-4-Copy-3" transform="translate(3.482051, 5.031089) rotate(120.000000) translate(-3.482051, -5.031089) " cx="3.48205081" cy="5.03108891" rx="3.5" ry="2"></ellipse>
                    <ellipse id="Oval-4-Copy" cx="7.5" cy="14" rx="3.5" ry="2"></ellipse>
                    <ellipse id="Oval-3" cx="12" cy="6.5" rx="6" ry="6.5"></ellipse>
                </g>
                <g id="head" transform="translate(2.000000, 2.000000)">
                    <ellipse id="Oval" stroke="#A49B9B" fill="#FFF7EF" cx="15.5" cy="19.5" rx="15.5" ry="11.5"></ellipse>
                    <path d="M18.5,7.5 L22.6231056,3.37689437" id="Line" stroke="#979797" stroke-linecap="square"></path>
                    <circle id="Oval-2" stroke="#979797" fill="#EFEEEE" cx="23.5" cy="2.5" r="2.5"></circle>
                    <ellipse id="Oval-5-Copy" fill="#949494" cx="12.5" cy="19.5" rx="2.5" ry="1.5"></ellipse>
                    <ellipse id="Oval-5-Copy-2" fill="#949494" cx="19.5" cy="19.5" rx="2.5" ry="1.5"></ellipse>
                    <polyline id="Line-2-Copy-3" stroke="#A19C9C" stroke-linecap="square" points="14 25 15.1834063 25.6544972 16.5106883 25 17.5638971 25.6544972 19 25"></polyline>
                    <path d="M18.5,15.5 L23.5,16.25" id="Line-2-Copy" stroke="#A15252" stroke-linecap="square"></path>
                    <path d="M8.5,16.25 L13.5,15.5" id="Line-2-Copy-2" stroke="#A15252" stroke-linecap="square"></path>
                </g>
                <rect id="brick_0" x="0" y="0" width="35" height="47"></rect>
            </g>
        </g>
    </g>
</svg>
