<?xml version="1.0" encoding="UTF-8"?>
<svg width="35px" height="31px" viewBox="0 0 35 31" version="1.1" xmlns="http://www.w3.org/2000/svg" xmlns:xlink="http://www.w3.org/1999/xlink">
    <g id="Page-1" stroke="none" stroke-width="1" fill="none" fill-rule="evenodd">
        <g id="enemies" transform="translate(-144.000000, -62.000000)">
            <g id="turtle" transform="translate(143.000000, 60.000000)">
                <rect id="Rectangle-2" x="0" y="0" width="38" height="34"></rect>
                <path d="M9,32.2602092 C10.6568542,32.2602092 12,31.9852814 12,29.5 C12,27.0147186 10.6568542,25 9,25 C7.34314575,25 6,27.0147186 6,29.5 C6,31.9852814 7.34314575,32.2602092 9,32.2602092 Z" id="Oval-7" stroke="#979797" fill="#AFD27E"></path>
                <path d="M28,32.2602092 C29.6568542,32.2602092 31,31.9852814 31,29.5 C31,27.0147186 29.6568542,25 28,25 C26.3431458,25 25,27.0147186 25,29.5 C25,31.9852814 26.3431458,32.2602092 28,32.2602092 Z" id="Oval-7-Copy" stroke="#979797" fill="#AFD27E"></path>
                <path d="M18.5,26.9424868 C26.5081289,26.9424868 33,28.5081289 33,20.5 C33,12.4918711 26.5081289,6 18.5,6 C10.4918711,6 4,12.4918711 4,20.5 C4,28.5081289 10.4918711,26.9424868 18.5,26.9424868 Z" id="Oval-6" stroke="#979797" fill="#BBE381"></path>
                <path d="M21.5,17.5 L22.5,20.5" id="Line" stroke="#979797" fill="#BBE381" stroke-linecap="square"></path>
                <path d="M14.5,19.5 L15.5,21.5" id="Line-2" stroke="#979797" fill="#BBE381" stroke-linecap="square"></path>
                <path d="M16.9344055,20 C20.7641718,20 23.8688109,16.8953609 23.8688109,13.0655945 C23.8688109,9.23582816 20.7641718,8 16.9344055,8 C13.1046391,8 10,9.23582816 10,13.0655945 C10,16.8953609 13.1046391,20 16.9344055,20 Z" id="Oval-8" stroke="#979797" fill="#BBE381"></path>
                <path d="M15.5,17.5 L18.5,17.5" id="Line-3" stroke="#979797" fill="#BBE381" stroke-linecap="square"></path>
                <ellipse id="Path" stroke="#979797" fill="#FFFFFF" cx="14" cy="13.5" rx="2" ry="1.5"></ellipse>
                <ellipse id="Path-Copy" stroke="#979797" fill="#FFFFFF" cx="20" cy="13.5" rx="2" ry="1.5"></ellipse>
                <polygon id="Triangle-2" stroke="#979797" fill="#AFD27E" transform="translate(3.640564, 13.640564) rotate(-66.000000) translate(-3.640564, -13.640564) " points="3.6405642 11.6405642 5.6405642 15.6405642 1.6405642 15.6405642"></polygon>
                <polygon id="Triangle-2-Copy" stroke="#979797" fill="#AFD27E" transform="translate(9.744411, 6.744411) rotate(-31.000000) translate(-9.744411, -6.744411) " points="9.74441075 4.74441075 11.7444108 8.74441075 7.74441075 8.74441075"></polygon>
                <polygon id="Triangle-2-Copy-2" stroke="#979797" fill="#AFD27E" points="19 2 21 6 17 6"></polygon>
                <polygon id="Triangle-2-Copy-4" stroke="#979797" fill="#AFD27E" transform="translate(33.744411, 14.744411) rotate(73.000000) translate(-33.744411, -14.744411) " points="33.7444108 12.7444108 35.7444108 16.7444108 31.7444108 16.7444108"></polygon>
                <polygon id="Triangle-2-Copy-3" stroke="#979797" fill="#AFD27E" transform="translate(28.744411, 6.744411) rotate(39.000000) translate(-28.744411, -6.744411) " points="28.7444108 4.74441075 30.7444108 8.74441075 26.7444108 8.74441075"></polygon>
            </g>
        </g>
    </g>
</svg>
